<?xml version="1.0" encoding="UTF-8" standalone="no"?>
<svg
   width="200"
   height="200"
   viewBox="0 0 200 200"
   fill="none"
   stroke="#000"
   stroke-width="3"
   stroke-linecap="round"
   stroke-linejoin="round"
   version="1.1"
   id="svg24"
   sodipodi:docname="logo.svg"
   inkscape:version="1.2.2 (b0a8486541, 2022-12-01)"
   xml:space="preserve"
   xmlns:inkscape="http://www.inkscape.org/namespaces/inkscape"
   xmlns:sodipodi="http://sodipodi.sourceforge.net/DTD/sodipodi-0.dtd"
   xmlns:xlink="http://www.w3.org/1999/xlink"
   xmlns="http://www.w3.org/2000/svg"
   xmlns:svg="http://www.w3.org/2000/svg"><defs
     id="defs28"><linearGradient
       id="linearGradient865"><stop
         id="stop866"
         stop-color="#fff"
         offset="0" /><stop
         id="stop868"
         stop-color="#fff"
         stop-opacity="0"
         offset="1" /></linearGradient><radialGradient
       id="radialGradient852"
       fx="240.44451"
       fy="325.26891"
       cy="477.92411"
       cx="227.01167"
       r="201.51011"
       gradientUnits="userSpaceOnUse"><stop
         id="stop854"
         stop-color="#e3f9ff"
         offset="0" /><stop
         id="stop867"
         stop-color="#73bee7"
         offset=".36195" /><stop
         id="stop856"
         stop-color="#438ec5"
         offset=".62535" /><stop
         id="stop1185"
         stop-color="#477daf"
         offset=".72607" /><stop
         id="stop855"
         stop-color="#020407"
         offset="1" /></radialGradient><radialGradient
       id="radialGradient858"
       cx="79.899983"
       cy="77.945017"
       fx="79.899983"
       fy="77.945017"
       r="69.046652"
       gradientUnits="userSpaceOnUse"><stop
         id="stop1401"
         stop-opacity=".67843"
         offset="0" /><stop
         id="stop1403"
         stop-opacity=".32941"
         offset=".57" /><stop
         id="stop1402"
         stop-opacity="0"
         offset="1" /></radialGradient><linearGradient
       id="linearGradient864"
       y2="46.500915"
       xlink:href="#linearGradient865"
       y1="24.712684"
       x2="82.357025"
       x1="106.31724"
       gradientTransform="scale(1.1060354,0.90413019)"
       gradientUnits="userSpaceOnUse" /><linearGradient
       id="linearGradient870"
       y2="112.42411"
       xlink:href="#linearGradient865"
       y1="200.92173"
       x2="88.448544"
       x1="180.05761"
       gradientTransform="scale(1.0680964,0.93624508)"
       gradientUnits="userSpaceOnUse" /><linearGradient
       id="linearGradient1010"
       y2="40.173408"
       xlink:href="#linearGradient865"
       y1="-54.525606"
       x2="38.815004"
       x1="43.294524"
       gradientUnits="userSpaceOnUse" /><linearGradient
       id="linearGradient1011"
       y2="24.08137"
       xlink:href="#linearGradient865"
       y1="182.93916"
       x2="53.240059"
       x1="77.643863"
       gradientUnits="userSpaceOnUse" /><radialGradient
       id="radialGradient852-6"
       fx="240.44451"
       fy="325.26891"
       cy="477.92411"
       cx="227.01167"
       r="201.51011"
       gradientUnits="userSpaceOnUse"
       gradientTransform="matrix(-0.47095715,0,0,0.47095695,181.71982,-136.36754)"><stop
         id="stop854-2"
         stop-color="#e3f9ff"
         offset="0"
         style="stop-color:#efefef;stop-opacity:1;" /><stop
         id="stop867-9"
         stop-color="#73bee7"
         offset=".36195" /><stop
         id="stop856-1"
         stop-color="#438ec5"
         offset=".62535" /><stop
         id="stop1185-2"
         stop-color="#477daf"
         offset=".72607" /><stop
         id="stop855-7"
         stop-color="#020407"
         offset="1" /></radialGradient><radialGradient
       id="radialGradient858-0"
       cx="79.899983"
       cy="77.945017"
       fx="79.899983"
       fy="77.945017"
       r="69.046652"
       gradientUnits="userSpaceOnUse"><stop
         id="stop1401-9"
         stop-opacity=".67843"
         offset="0" /><stop
         id="stop1403-3"
         stop-opacity=".32941"
         offset=".57" /><stop
         id="stop1402-6"
         stop-opacity="0"
         offset="1" /></radialGradient><linearGradient
       id="linearGradient864-0"
       y2="46.500915"
       xlink:href="#linearGradient865"
       y1="24.712684"
       x2="82.357025"
       x1="106.31724"
       gradientTransform="scale(1.1060354,0.90413019)"
       gradientUnits="userSpaceOnUse" /><linearGradient
       id="linearGradient870-6"
       y2="112.42411"
       xlink:href="#linearGradient865"
       y1="200.92173"
       x2="88.448544"
       x1="180.05761"
       gradientTransform="scale(1.0680964,0.93624508)"
       gradientUnits="userSpaceOnUse" /><linearGradient
       id="linearGradient1010-2"
       y2="40.173408"
       xlink:href="#linearGradient865"
       y1="-54.525606"
       x2="38.815004"
       x1="43.294524"
       gradientUnits="userSpaceOnUse" /><linearGradient
       id="linearGradient1011-6"
       y2="24.08137"
       xlink:href="#linearGradient865"
       y1="182.93916"
       x2="53.240059"
       x1="77.643863"
       gradientUnits="userSpaceOnUse" /><linearGradient
       id="linearGradient654"
       y1="27.300313"
       x2="82.881792"
       x1="8.6038046"
       y2="27.926988"
       gradientTransform="scale(0.98642585,1.0137609)"
       gradientUnits="userSpaceOnUse"><stop
         id="stop585"
         stop-color="#fff"
         offset="0"
         style="stop-color:#002aff;stop-opacity:1;" /><stop
         id="stop586"
         stop-color="#fff"
         stop-opacity="0"
         offset="1" /></linearGradient></defs><sodipodi:namedview
     id="namedview26"
     pagecolor="#ffffff"
     bordercolor="#000000"
     borderopacity="0.25"
     inkscape:showpageshadow="2"
     inkscape:pageopacity="0.0"
     inkscape:pagecheckerboard="0"
     inkscape:deskcolor="#d1d1d1"
     showgrid="false"
     inkscape:zoom="2.1"
     inkscape:cx="46.904762"
     inkscape:cy="61.904762"
     inkscape:window-width="1680"
     inkscape:window-height="1002"
     inkscape:window-x="0"
     inkscape:window-y="24"
     inkscape:window-maximized="1"
     inkscape:current-layer="g5254" /><g
     id="g5254"
     transform="translate(25.419256,23.898084)"><g
       id="g7228"
       inkscape:label="glob"
       style="opacity:1"
       transform="matrix(1.1612736,0,0,1.1612736,-13.276995,-13.701392)"><path
         id="path825"
         d="m -5.4008321,77.211485 a 81.357831,81.357831 0 1 1 162.7156621,0 81.357831,81.357831 0 1 1 -162.7156621,0 z"
         fill-rule="evenodd"
         stroke-width="0.470957pt"
         fill="url(#radialGradient852)"
         style="fill:url(#radialGradient852-6)" /><path
         id="path846"
         d="m 90.311844,127.84977 c -10.72349,-1.2461 -10.829898,-19.40561 -0.176415,-20.87573 6.69395,3.76631 12.911871,-12.122205 16.328151,-5.78108 -2.82823,12.0116 12.50304,9.29537 15.42928,0.0658 4.35436,-7.447222 2.17018,6.42933 3.85032,9.38357 3.89232,9.5628 -8.16267,22.93391 -17.05341,14.84123 -6.37053,-5.64246 -12.197811,0.36403 -18.377926,2.3662 z m 22.438256,6.59455 c 1.06409,4.15834 3.26228,4.53637 4.67639,0.15401 1.42812,-4.14434 -3.93432,-3.37428 -4.67639,-0.15401 z M 31.561573,33.843176 C 22.703038,42.620504 20.083421,55.291555 17.137577,66.93492 19.325958,75.150801 25.927505,83.520695 18.324875,91.026717 13.463672,101.58919 -2.1826254,94.942842 1.7166979,84.199751 1.5192815,71.474096 -0.03904775,57.995179 6.0766597,46.279007 9.4257367,38.82899 15.766863,29.862646 24.922222,30.715317 c 2.4166,0.536244 4.561578,1.839753 6.639351,3.127859 z M 51.144996,63.219012 C 50.516344,53.007965 61.668269,53.881638 59.15366,41.683826 58.725225,31.332768 37.125634,36.489396 43.452758,24.143172 49.341647,14.915007 48.638788,10.178414 63.379211,7.7968173 78.121033,4.7627656 93.89194,1.2148715 118.6866,19.503187 142.8246,37.790104 98.607529,23.287701 93.305292,29.998458 84.789786,37.171252 88.628904,52.870754 78.69648,56.165227 70.112369,61.667683 70.795625,73.043626 69.363307,81.959566 71.070048,89.266771 93.680523,84.077941 83.108246,94.102772 72.358155,96.8302 65.151758,86.007301 57.676538,80.297628 53.890624,76.717531 51.773648,72.776204 51.144996,63.219012 Z M 125.56117,48.204167 c 9.12875,-0.585248 12.88106,9.89042 12.069,17.49165 -4.97041,8.294288 5.97849,16.018728 11.38294,7.496222 5.83849,-10.304855 -3.6823,-23.199924 -12.58704,-28.657576 -3.93433,-3.49049 -11.70497,-3.01445 -10.8649,3.669704 z M 35.477697,135.67642 c 11.468351,-0.16801 23.044511,-2.77223 34.441456,-0.37803 4.446768,5.97849 16.984808,10.15084 17.152822,16.39536 -8.852934,6.18851 -20.347887,0.37803 -29.591454,-2.01617 -7.340808,-2.22618 -17.770273,-0.68606 -21.563187,-8.93274 -0.534845,-1.62414 -0.812068,-3.37428 -0.439637,-5.06842 z"
         fill-rule="evenodd"
         fill-opacity="0.59375"
         stroke-width="1.40012pt"
         fill="#0e7a0c"
         style="fill:#0e7a0c;fill-opacity:0.908417" /></g><g
       id="g7224"
       transform="matrix(2.7331004,0,0,2.7331004,-8.5431597,-3.126562)"
       inkscape:label="clock"
       style="opacity:1"><path
         id="path868"
         d="m 51.538,31.489 a 19.033,19.581 0 1 0 -38.066,0 19.033,19.581 0 1 0 38.066,0 z"
         fill-rule="evenodd"
         fill-opacity="0.3871"
         stroke-width="0"
         fill="#040000"
         transform="matrix(1.362,0,0,1.3128,-11.003,-10.33)" /><path
         id="path867"
         d="m 51.538,31.489 a 19.033,19.581 0 1 0 -38.066,0 19.033,19.581 0 1 0 38.066,0 z"
         fill-rule="evenodd"
         stroke="#000000"
         stroke-width="1.4841"
         fill="url(#linearGradient654)"
         style="fill:#ffffff;fill-opacity:1;stroke-width:2.85902;stroke-dasharray:none"
         transform="matrix(1.362,0,0,1.3128,-14.982,-11.823)" /><rect
         id="rect867"
         transform="matrix(0.0095486,0.99995,-0.99995,0.0095486,0,0)"
         fill-rule="evenodd"
         fill-opacity="0.75"
         ry="0.44764999"
         height="4.5153999"
         width="2.2618001"
         stroke="#000000"
         y="-10.326"
         x="27.806"
         stroke-width="0.36129"
         fill="#0a0608" /><rect
         id="rect869"
         transform="matrix(0.0095486,0.99995,-0.99995,0.0095486,0,0)"
         fill-rule="evenodd"
         fill-opacity="0.75"
         ry="0.44764999"
         height="4.5153999"
         width="2.2618001"
         stroke="#000000"
         y="-10.326"
         x="31.252001"
         stroke-width="0.36129"
         fill="#0a0608" /><rect
         id="rect870"
         fill-rule="evenodd"
         fill-opacity="0.75"
         ry="0.44764999"
         height="4.5153999"
         width="2.2618999"
         stroke="#000000"
         y="8.7426004"
         x="25.558001"
         stroke-width="0.36129"
         fill="#0a0608" /><rect
         id="rect871"
         fill-rule="evenodd"
         fill-opacity="0.75"
         ry="0.44764999"
         height="4.5153999"
         width="2.2618999"
         stroke="#000000"
         y="8.7426004"
         x="29.004999"
         stroke-width="0.36129"
         fill="#0a0608" /><rect
         id="rect872"
         fill-rule="evenodd"
         fill-opacity="0.75"
         ry="0.44764999"
         height="4.5153999"
         width="2.2618999"
         stroke="#000000"
         y="46.966"
         x="26.341999"
         stroke-width="0.36129"
         fill="#0a0608" /><rect
         id="rect873"
         fill-rule="evenodd"
         fill-opacity="0.75"
         ry="0.44764999"
         height="4.5153999"
         width="2.2618999"
         stroke="#000000"
         y="46.966"
         x="29.788"
         stroke-width="0.36129"
         fill="#0a0608" /><rect
         id="rect874"
         transform="matrix(0.0095486,0.99995,-0.99995,0.0095486,0,0)"
         fill-rule="evenodd"
         fill-opacity="0.75"
         ry="0.44764999"
         height="4.5153999"
         width="2.2618001"
         stroke="#000000"
         y="-52.152"
         x="28.049"
         stroke-width="0.36129"
         fill="#0a0608" /><rect
         id="rect875"
         transform="matrix(0.0095486,0.99995,-0.99995,0.0095486,0,0)"
         fill-rule="evenodd"
         fill-opacity="0.75"
         ry="0.44764999"
         height="4.5153999"
         width="2.2618001"
         stroke="#000000"
         y="-52.152"
         x="31.495001"
         stroke-width="0.36129"
         fill="#0a0608" /><path
         id="path878"
         d="m 44.363,2.2659 c -3.742,3.9471 -12.378,16.738 -15.5,21.919 -2.526,4.745 -4.256,7.576 -4.447,12.371 3.668,-2.393 5.423,-4.408 8.197,-9.573 2.824,-4.964 10.268,-19.451 11.75,-24.717 z"
         fill-rule="evenodd"
         fill-opacity="0.75"
         stroke="#000000"
         stroke-width="0.93115pt"
         fill="#060000" /><path
         id="path879"
         d="m 48.607,25.363 c -4.155,0.13 -15.621,2.326 -20.05,3.408 -3.865,1.16 -6.299,1.738 -8.855,4.113 3.32,0.634 5.352,0.488 9.574,-0.762 4.147,-1.121 15.796,-4.799 19.331,-6.759 z"
         fill-rule="evenodd"
         fill-opacity="0.75"
         stroke="#000000"
         stroke-width="0.69347pt"
         fill="#060000" /></g></g></svg>
